<?xml version="1.0" standalone="no"?>
<!DOCTYPE svg PUBLIC "-//W3C//DTD SVG 20010904//EN"
 "http://www.w3.org/TR/2001/REC-SVG-20010904/DTD/svg10.dtd">
<svg version="1.0" xmlns="http://www.w3.org/2000/svg"
 width="36.000000pt" height="36.000000pt" viewBox="0 0 36.000000 36.000000"
 preserveAspectRatio="xMidYMid meet">

<g transform="translate(0.000000,36.000000) scale(0.100000,-0.100000)"
fill="#000000" stroke="none">
<path d="M74 279 c-3 -6 13 -31 37 -55 l43 -44 -44 -45 c-34 -35 -41 -48 -32
-57 9 -9 22 -2 57 32 l45 44 45 -44 c35 -34 48 -41 57 -32 9 9 2 22 -32 57
l-44 45 44 45 c34 35 41 48 32 57 -9 9 -22 2 -57 -32 l-45 -44 -43 42 c-46 45
-52 48 -63 31z"/>
</g>
</svg>
